<?xml version="1.0" encoding="iso-8859-1"?>
<!-- Generator: Adobe Illustrator 19.0.0, SVG Export Plug-In . SVG Version: 6.00 Build 0)  -->
<svg version="1.1" id="Capa_1" xmlns="http://www.w3.org/2000/svg" xmlns:xlink="http://www.w3.org/1999/xlink" x="0px" y="0px"
	 viewBox="0 0 512.142 512.142" style="enable-background:new 0 0 512.142 512.142;" xml:space="preserve">
<g>
	<path style="fill:#455A64;" d="M224.071,149.475c-2.831,0.005-5.548-1.115-7.552-3.115l-128-128
		c-4.171-4.171-4.171-10.933,0-15.104c4.171-4.171,10.933-4.171,15.104,0l120.448,120.469L344.519,3.256
		c4.093-4.237,10.845-4.354,15.083-0.262c4.237,4.093,4.354,10.845,0.262,15.083c-0.086,0.089-0.173,0.176-0.262,0.262l-128,128
		C229.606,148.341,226.897,149.469,224.071,149.475z"/>
	<path style="fill:#455A64;" d="M74.737,512.142c-5.891,0-10.667-4.776-10.667-10.667v-42.667c0-5.891,4.776-10.667,10.667-10.667
		s10.667,4.776,10.667,10.667v42.667C85.404,507.366,80.628,512.142,74.737,512.142z"/>
	<path style="fill:#455A64;" d="M437.404,512.142c-5.891,0-10.667-4.776-10.667-10.667v-42.667c0-5.891,4.776-10.667,10.667-10.667
		c5.891,0,10.667,4.776,10.667,10.667v42.667C448.071,507.366,443.295,512.142,437.404,512.142z"/>
</g>
<path style="fill:#B0BEC5;" d="M53.404,128.142h405.333c29.455,0,53.333,23.878,53.333,53.333v234.667
	c0,29.455-23.878,53.333-53.333,53.333H53.404c-29.455,0-53.333-23.878-53.333-53.333V181.475
	C0.071,152.02,23.949,128.142,53.404,128.142z"/>
<path style="fill:#FAFAFA;" d="M117.404,170.808h170.667c41.237,0,74.667,33.429,74.667,74.667v106.667
	c0,41.237-33.429,74.667-74.667,74.667H117.404c-41.237,0-74.667-33.429-74.667-74.667V245.475
	C42.737,204.238,76.167,170.808,117.404,170.808z"/>
<g>
	<path style="fill:#009688;" d="M437.404,213.475h-42.667c-5.891,0-10.667-4.776-10.667-10.667s4.776-10.667,10.667-10.667h42.667
		c5.891,0,10.667,4.776,10.667,10.667S443.295,213.475,437.404,213.475z"/>
	<path style="fill:#009688;" d="M437.404,256.142h-42.667c-5.891,0-10.667-4.776-10.667-10.667s4.776-10.667,10.667-10.667h42.667
		c5.891,0,10.667,4.776,10.667,10.667S443.295,256.142,437.404,256.142z"/>
	<path style="fill:#009688;" d="M437.404,298.808h-42.667c-5.891,0-10.667-4.776-10.667-10.667c0-5.891,4.776-10.667,10.667-10.667
		h42.667c5.891,0,10.667,4.776,10.667,10.667C448.071,294.033,443.295,298.808,437.404,298.808z"/>
</g>
<path style="fill:#455A64;" d="M394.737,320.142h42.667c5.891,0,10.667,4.776,10.667,10.667v85.333
	c0,5.891-4.776,10.667-10.667,10.667h-42.667c-5.891,0-10.667-4.776-10.667-10.667v-85.333
	C384.071,324.917,388.846,320.142,394.737,320.142z"/>
<g>
</g>
<g>
</g>
<g>
</g>
<g>
</g>
<g>
</g>
<g>
</g>
<g>
</g>
<g>
</g>
<g>
</g>
<g>
</g>
<g>
</g>
<g>
</g>
<g>
</g>
<g>
</g>
<g>
</g>
</svg>
